# xmcd
#
# Track frame offsets:
#	150
#	20460
#	42730
#	59143
#	77766
#	93693
#	110728
#	125530
#	142755
#	157374
#	176448
#	197329
#	212189
#	230191
#	250332
#	271638
#	288164
#	305070
#	319800
#	335811
#
# Disc length: 4673 seconds
#
# Revision: 2
# Processed by: cddbd v1.5.2PL0 Copyright (c) Steve Scherf et al.
# Submitted via: EasyCDDAExtractor 12.0.1.1
#
DISCID=39123f14
DTITLE=Various Artist - The Ultimate Latin Album 9 CD1
DYEAR=2008
DGENRE=Latin
TTITLE0=Mirko Casadei - CC 31 - Nuevo Cha Cha Cha
TTITLE1=Dj Axel Force Mix - CC 31 - Clocks
TTITLE2=Dj Ashantis Mix - CC 31 - Primavera
TTITLE3=Mirko Casadei - CC 31 - Ducha Fria
TTITLE4=Carlos Jean - CC 31 - La Alianza
TTITLE5=Rosario - CC 31 - Mi Amor Por Ti
TTITLE6=Gabriel Rios - CC 31 - Bones Bugalu
TTITLE7=Gloria Estefan - CC 30 - No Llores
TTITLE8=Maracca Cubana - CC 31 - Mi Guajira Son
TTITLE9=Bonbon Marques - CC 31 - Cha Escaparon
TTITLE10=Dj Yano Mix - SB 50 - Sambanera
TTITLE11=Dj Daniel Mix - SB 50 - Miss You
TTITLE12=Ricardo Montaner - SB 50 - Tengo Verano
TTITLE13=Olga Tanon - SB 50 - Bandolero
TTITLE14=Dj Srl Mix - SB 50 - Voulez Vous Dansez
TTITLE15=Airto Moreira - SB 50 - The Happy People
TTITLE16=Anna Book - SB 50 - La Isla Bonita
TTITLE17=Sa&Fe - SB 50 - Explota La Bomba
TTITLE18=Rosario - SB 50 - Cayetano
TTITLE19=Los Manolos - SB 49 - Para Rumberos
EXTD=
EXTT0=
EXTT1=
EXTT2=
EXTT3=
EXTT4=
EXTT5=
EXTT6=
EXTT7=
EXTT8=
EXTT9=
EXTT10=
EXTT11=
EXTT12=
EXTT13=
EXTT14=
EXTT15=
EXTT16=
EXTT17=
EXTT18=
EXTT19=
PLAYORDER=
